<svg width="71" height="72" viewBox="0 0 71 72" fill="none" xmlns="http://www.w3.org/2000/svg">
<path d="M62.9952 44.5753C57.1219 47.0995 50.6141 45.1409 48.4596 40.2006C46.3051 35.2604 49.3197 29.2092 55.193 26.685C61.0663 24.1608 67.5741 26.1194 69.7286 31.0597C71.8831 35.9999 68.8685 42.0511 62.9952 44.5753Z" fill="#AD7402"/>
<path d="M53.508 24.0496C48.5386 28.0532 41.7396 27.9103 38.3221 23.7305C34.9046 19.5506 36.1626 12.9165 41.132 8.91286C46.1015 4.90921 52.9004 5.05208 56.3179 9.23197C59.7355 13.4119 58.4774 20.0459 53.508 24.0496Z" fill="#AD7402"/>
<path d="M32.4791 12.327C30.6807 17.1239 25.9033 19.7866 21.8083 18.2741C17.7134 16.7617 15.8516 11.6469 17.65 6.84997C19.4483 2.05302 24.2258 -0.609604 28.3207 0.902833C32.4157 2.41527 34.2774 7.53004 32.4791 12.327Z" fill="#AD7402"/>
<path d="M57.9353 65.851C52.7596 67.1017 47.6986 64.5863 46.6312 60.2328C45.5639 55.8792 48.8943 51.3361 54.07 50.0854C59.2456 48.8347 64.3066 51.3501 65.374 55.7036C66.4414 60.0572 63.111 64.6003 57.9353 65.851Z" fill="#AD7402"/>
<path d="M39.4367 63.2481C33.1632 74.5175 15.0334 74.2373 6.47353 65.9273C-2.08638 57.6174 -2.51182 39.7752 8.43852 33.155C21.0416 26.5947 32.8418 22.1659 41.4017 30.4758C49.9616 38.7858 46.9368 49.7756 39.4367 63.2481Z" fill="#AD7402"/>
</svg>
