<svg width="112" height="107" viewBox="0 0 112 107" fill="none" xmlns="http://www.w3.org/2000/svg">
<path d="M65.7868 10.7506C70.1256 19.5136 67.5806 29.5776 60.1024 33.2293C52.6242 36.8811 43.0447 32.7376 38.7059 23.9746C34.3671 15.2116 36.9121 5.14754 44.3902 1.49584C51.8684 -2.15587 61.448 1.98763 65.7868 10.7506Z" fill="#AD7402"/>
<path d="M34.7564 26.739C41.3154 34.0142 41.5994 44.3866 35.3907 49.9066C29.1819 55.4265 18.8316 54.0035 12.2726 46.7284C5.71354 39.4532 5.42957 29.0807 11.6383 23.5608C17.847 18.0409 28.1974 19.4638 34.7564 26.739Z" fill="#AD7402"/>
<path d="M18.1937 59.6613C25.7438 62.0446 30.2152 69.1272 28.1809 75.4807C26.1466 81.8343 18.3769 85.0528 10.8268 82.6695C3.27675 80.2862 -1.19469 73.2037 0.839615 66.8501C2.87392 60.4966 10.6436 57.2781 18.1937 59.6613Z" fill="#AD7402"/>
<path d="M99.0568 16.8765C101.375 24.6712 97.8616 32.5718 91.2098 34.5229C84.5581 36.4741 77.2866 31.737 74.9686 23.9423C72.6506 16.1476 76.1638 8.247 82.8156 6.29584C89.4673 4.34468 96.7388 9.08181 99.0568 16.8765Z" fill="#AD7402"/>
<path d="M96.4061 45.2629C114.295 53.9842 115.209 81.6354 102.996 95.3003C90.7837 108.965 63.2296 110.943 52.181 94.7478C41.1022 76.0291 33.3786 58.3754 45.591 44.7105C57.8035 31.0456 75.0193 34.8366 96.4061 45.2629Z" fill="#AD7402"/>
</svg>
