<svg width="14" height="18" viewBox="0 0 14 18" fill="none" xmlns="http://www.w3.org/2000/svg">
<path d="M12.3456 7.76134L12.3183 3.21376C12.3107 1.94923 11.232 0.927078 9.91362 0.935013L4.68586 0.966479C3.36745 0.974415 2.3012 2.00948 2.30881 3.27401L2.33618 7.82158C1.49131 7.94848 0.846157 8.65024 0.851244 9.4954L0.892225 16.304C0.897829 17.235 1.68944 17.9848 2.65975 17.979L12.1448 17.9219C13.1149 17.9161 13.8976 17.157 13.892 16.2258L13.851 9.41715C13.8455 8.572 13.192 7.87806 12.3456 7.76134ZM4.6958 2.61754L9.92355 2.58607C10.2927 2.58385 10.5947 2.87006 10.5969 3.22412L10.6241 7.75097L4.05747 7.79049L4.03022 3.26365C4.02809 2.90959 4.32665 2.61976 4.6958 2.61754ZM7.38252 14.7032C6.43057 14.7089 5.65473 13.9737 5.64924 13.0606C5.64374 12.1476 6.41067 11.4029 7.36262 11.3972C8.31456 11.3915 9.0904 12.1269 9.0959 13.0399C9.10139 13.9529 8.33446 14.6974 7.38252 14.7032Z" fill="#FF5E00"/>
</svg>
