<svg width="19" height="19" viewBox="0 0 19 19" fill="none" xmlns="http://www.w3.org/2000/svg">
<path d="M7.5992 0.556179C8.99715 0.547708 10.3696 0.930124 11.5618 1.66027C12.754 2.39042 13.7183 3.43923 14.346 4.68835C14.9738 5.93747 15.2399 7.33717 15.1143 8.7295C14.9888 10.1218 14.4766 11.4514 13.6356 12.5681L18.4071 17.2844C18.5875 17.4633 18.6931 17.7041 18.7024 17.958C18.7117 18.2119 18.6239 18.4599 18.4571 18.6514C18.2902 18.843 18.0566 18.9639 17.8039 18.9895C17.5511 19.0151 17.298 18.9435 17.0961 18.7893L17.0016 18.7069L12.2282 13.9926C11.2855 14.7203 10.1831 15.2132 9.01219 15.4303C7.84126 15.6475 6.63546 15.5826 5.49455 15.2412C4.35365 14.8998 3.31045 14.2916 2.45127 13.4669C1.59209 12.6423 0.941646 11.6249 0.553746 10.499C0.165845 9.373 0.0516466 8.17087 0.220599 6.99202C0.389551 5.81317 0.836796 4.6915 1.52533 3.71982C2.21386 2.74814 3.12388 1.9544 4.18009 1.40426C5.2363 0.854122 6.40833 0.56341 7.5992 0.556179ZM7.61124 2.55614C6.15257 2.56492 4.75714 3.15279 3.73192 4.19043C2.70669 5.22807 2.13566 6.63048 2.14444 8.08915C2.15322 9.54781 2.74109 10.9432 3.77873 11.9685C4.81637 12.9937 6.21878 13.5647 7.67745 13.5559C9.13611 13.5472 10.5315 12.9593 11.5568 11.9217C12.582 10.884 13.153 9.4816 13.1442 8.02294C13.1355 6.56427 12.5476 5.16884 11.51 4.14362C10.4723 3.11839 9.0699 2.54736 7.61124 2.55614Z" fill="black"/>
</svg>
