<svg width="132" height="97" viewBox="0 0 132 97" fill="none" xmlns="http://www.w3.org/2000/svg">
<path d="M0 0H132V97H0V0Z" fill="#D9D9D9"/>
<path d="M78 38.1111H73.245L71.385 36.0111C71.1055 35.6928 70.765 35.4385 70.3853 35.2644C70.0056 35.0903 69.5951 35.0003 69.18 35H62.82C61.98 35 61.17 35.3733 60.6 36.0111L58.755 38.1111H54C52.35 38.1111 51 39.5111 51 41.2222V59.8889C51 61.6 52.35 63 54 63H78C79.65 63 81 61.6 81 59.8889V41.2222C81 39.5111 79.65 38.1111 78 38.1111ZM66 58.3333C61.86 58.3333 58.5 54.8489 58.5 50.5556C58.5 46.2622 61.86 42.7778 66 42.7778C70.14 42.7778 73.5 46.2622 73.5 50.5556C73.5 54.8489 70.14 58.3333 66 58.3333Z" fill="black"/>
<line x1="66.5" y1="45" x2="66.5" y2="57" stroke="black"/>
<line x1="72" y1="50.5" x2="60" y2="50.5" stroke="black"/>
</svg>
